<?xml version="1.0" encoding="utf-8"?>
<!-- Generator: Adobe Illustrator 15.0.0, SVG Export Plug-In . SVG Version: 6.00 Build 0)  -->
<!DOCTYPE svg PUBLIC "-//W3C//DTD SVG 1.1//EN" "http://www.w3.org/Graphics/SVG/1.1/DTD/svg11.dtd">
<svg version="1.1" id="Layer_1" xmlns="http://www.w3.org/2000/svg" xmlns:xlink="http://www.w3.org/1999/xlink" x="0px" y="0px"
	 width="400px" height="400px" viewBox="0 0 400 400" enable-background="new 0 0 400 400" xml:space="preserve">
<g>
	<path fill="#085A9A" d="M241.248,138.863c5.623-1.406,44.518,46.862-9.84,63.266c0,0-85.449,0-94.86,0
		c-9.412,0-4.959,6.443-4.959,6.443l109.659,110.244l-40.771,40.771C110.5,249.227,55.67,252.74,75.353,138.863"/>
	<path fill="#4FACE1" d="M216.339,241.492c0,0,42.138,42.982,50.612,48.502c22.494-16.52,110.363-102.278,32.336-201.746
		c-2.813-7.029-97.008-104.036-205.262,8.436c0,0,132.969-0.573,136.371,0c14.727,3.295,68.539,17.574,67.836,78.028
		C298.232,174.712,295.068,245.711,216.339,241.492z"/>
	<path fill="#2F9DD8" d="M216.49,241.492c0,0,42.139,42.982,50.613,48.502c15.309-11.242,60.9-54.557,63.863-112.438
		c-27.311-37.992-30.123-30.26-42.99-43.916c6.428,10.517,10.607,23.939,10.406,41.071
		C298.383,174.712,295.221,245.711,216.49,241.492z"/>
</g>
<path fill="#DFEEFA" d="M1442.753,257.328c0,0-6.705-39.524-34.615-23.77c0,0-31.004,17.604,34.691,95.232l0.111-4.252
	c0,0-52.022-65.051-33.228-86.029c1.343-2.461,18.014-18.967,33.042,24.76L1442.753,257.328z"/>
</svg>
